<?xml version="1.0" encoding="UTF-8" standalone="no"?>
<svg
   xmlns:dc="http://purl.org/dc/elements/1.1/"
   xmlns:cc="http://creativecommons.org/ns#"
   xmlns:rdf="http://www.w3.org/1999/02/22-rdf-syntax-ns#"
   xmlns:svg="http://www.w3.org/2000/svg"
   xmlns="http://www.w3.org/2000/svg"
   xmlns:sodipodi="http://sodipodi.sourceforge.net/DTD/sodipodi-0.dtd"
   xmlns:inkscape="http://www.inkscape.org/namespaces/inkscape"
   version="1.1"
   id="svg2"
   width="846.70844"
   height="356.05716"
   viewBox="0 0 846.70845 356.05716"
   sodipodi:docname="Claret Paths Logo_stacked_white.svg"
   inkscape:version="1.0.1 (3bc2e813f5, 2020-09-07)">
  <metadata
     id="metadata8">
    <rdf:RDF>
      <cc:Work
         rdf:about="">
        <dc:format>image/svg+xml</dc:format>
        <dc:type
           rdf:resource="http://purl.org/dc/dcmitype/StillImage" />
        <dc:title></dc:title>
      </cc:Work>
    </rdf:RDF>
  </metadata>
  <defs
     id="defs6" />
  <sodipodi:namedview
     pagecolor="#ffffff"
     bordercolor="#666666"
     borderopacity="1"
     objecttolerance="10"
     gridtolerance="10"
     guidetolerance="10"
     inkscape:pageopacity="0"
     inkscape:pageshadow="2"
     inkscape:window-width="1900"
     inkscape:window-height="996"
     id="namedview4"
     showgrid="false"
     inkscape:pagecheckerboard="true"
     fit-margin-top="0"
     fit-margin-left="0"
     fit-margin-right="0"
     fit-margin-bottom="0"
     inkscape:zoom="0.73639147"
     inkscape:cx="343.69724"
     inkscape:cy="287.15442"
     inkscape:window-x="10"
     inkscape:window-y="74"
     inkscape:window-maximized="0"
     inkscape:current-layer="g10" />
  <g
     inkscape:groupmode="layer"
     inkscape:label="Image"
     id="g10"
     transform="translate(-123.76091,-44.382028)">
    <path
       style="fill:#ffffff;stroke-width:0.32"
       d="m 821.18937,400.03375 c -15.21046,-2.45079 -26.94886,-11.37904 -35.8041,-27.23264 -0.98774,-1.76839 -1.7959,-3.59527 -1.7959,-4.05971 0,-0.76983 1.02112,-1.45338 11.55098,-7.73242 7.70156,-4.59254 11.85036,-6.88797 12.44944,-6.88797 0.76067,0 1.05699,0.28224 1.93187,1.84 3.37677,6.01251 8.76339,12.18858 12.62595,14.47632 5.45882,3.23325 11.02122,3.4313 16.78726,0.59779 3.84576,-1.88988 7.00666,-6.08291 7.30592,-9.69148 0.16964,-2.04557 -0.54496,-4.94663 -1.87558,-7.61453 -1.27946,-2.56531 -6.19584,-7.46954 -14.36355,-14.3281 -18.74797,-15.74294 -28.44525,-25.24752 -33.19693,-32.53721 -2.28573,-3.50661 -4.68861,-8.60745 -5.55059,-11.78279 -0.88055,-3.24369 -1.20067,-10.43342 -0.63639,-14.29262 2.22967,-15.24866 14.89399,-27.65216 31.21162,-30.5688 3.97466,-0.71043 12.48237,-0.69837 16.32,0.0231 6.59488,1.2399 13.81885,4.41776 19.34614,8.51047 6.42976,4.76095 15.05386,13.2331 15.05386,14.78867 0,1.12766 -20.05498,18.49913 -21.35683,18.49913 -0.73331,0 -1.16215,-0.36369 -2.33091,-1.97682 -2.15431,-2.97339 -6.40493,-7.11547 -9.12244,-8.88947 -6.83539,-4.46221 -13.68435,-4.59008 -18.00585,-0.33619 -2.00419,1.9728 -2.78592,3.86772 -2.52045,6.10937 0.36026,3.04165 1.38957,4.63652 5.36342,8.31033 5.59223,5.16997 14.64228,13.16209 19.97306,17.63824 2.64,2.21676 5.75341,4.87513 6.91869,5.90752 7.09053,6.28185 10.3208,9.28844 11.72797,10.91593 7.58416,8.77165 11.26768,18.47219 11.27056,29.68109 0.003,8.84985 -1.67767,15.57622 -5.5192,22.09881 -1.96669,3.3392 -7.77728,9.45053 -11.09101,11.66503 -4.38848,2.93273 -9.81543,5.15088 -15.77683,6.44841 -3.99472,0.86951 -16.53671,1.12196 -20.89018,0.42048 z m -295.84,-60.79274 v -57.44 h -12.64 -12.64 v -14.08 -14.08 h 40.16 40.16 v 14.08 14.08 h -12.96 -12.96 v 57.44 57.44 h -14.56 -14.56 z m -305.6,-14.73517 v -71.85515 l 26.96,0.11385 c 25.91296,0.10944 27.07185,0.13961 29.84,0.77699 10.05492,2.31518 18.59121,7.38929 25.36676,15.0784 5.92737,6.72658 9.58526,14.44921 10.81516,22.83323 0.80776,5.50637 0.50162,16.13501 -0.59762,20.74785 -1.90597,7.99821 -5.39194,14.32237 -11.2643,20.43543 -7.1226,7.41452 -13.99603,11.48134 -23.2,13.72681 -3.26056,0.79546 -3.7412,0.82371 -16.24,0.95405 l -12.88,0.13434 v 24.45468 24.45469 h -14.4 -14.4 z m 48.4505,-5.70838 c 6.78043,-1.91744 12.10107,-7.41164 13.82545,-14.27645 0.66351,-2.64144 0.45437,-7.00738 -0.47518,-9.92 -1.843,-5.77478 -6.58562,-10.70734 -12.38248,-12.87842 -1.77301,-0.66404 -2.516,-0.71802 -11.25829,-0.81794 l -9.36,-0.10699 v 19.41487 19.41488 l 8.88,-0.14768 c 6.98433,-0.11613 9.28358,-0.26179 10.7705,-0.68227 z m 65.1495,76.71504 c 0,-0.59654 40.50704,-106.2017 54.63251,-142.43149 0.12154,-0.31173 3.32186,-0.4 14.50285,-0.4 8.35446,0 14.42262,0.12258 14.52822,0.29347 0.0998,0.1614 0.2697,0.93779 0.37764,1.7253 0.18041,1.3161 -0.35335,2.85069 -6.60362,18.98653 -3.73994,9.65509 -10.97363,28.1387 -16.07488,41.0747 -5.10128,12.936 -9.34755,23.772 -9.43619,24.08 -0.15213,0.52855 0.83712,0.56 17.61216,0.56 h 17.77331 l -4.296,-10.60745 c -2.76202,-6.81978 -4.296,-11.01988 -4.296,-11.76247 0,-1.06201 1.8993,-6.11772 11.40835,-30.36791 2.34442,-5.97875 2.4497,-6.17469 3.26707,-6.08 0.81268,0.0941 1.68196,2.26183 23.00458,57.3658 12.188,31.49738 22.16,57.52538 22.16,57.84 0,0.54131 -0.81312,0.57203 -15.14544,0.57203 h -15.14547 l -5.25984,-14.48 -5.25984,-14.48 h -28.27479 -28.27475 l -5.92339,14.48 -5.92339,14.48 h -14.67655 -14.67654 z m 296.96,-70.99149 v -71.84 h 14.72 14.72 v 29.12 29.12 h 22.56 22.56 v -29.12 -29.12 h 14.4 14.4 v 71.84 71.84 h -14.4 -14.4 v -29.12 -29.12 h -22.56 -22.56 v 29.12 29.12 h -14.72 -14.72 z m -439.84,-130.27321 c -0.528,-0.0703 -2.688,-0.35734 -4.8,-0.63777 -19.0266,-2.52632 -36.301,-12.35308 -47.20067,-26.8507 -7.20059,-9.57749 -11.59146,-20.03326 -13.78282,-32.82037 -0.85928,-5.01411 -1.22619,-18.82126 -0.63801,-24.00891 1.94754,-17.176962 9.76429,-33.453302 21.36625,-44.489572 11.2589,-10.70995 24.86115,-17.37848 41.0773,-20.13823 5.04927,-0.85931 17.02713,-1.20697 22.42125,-0.65078 9.30808,0.95976 20.7582,4.20248 28.27427,8.00738 7.70227,3.89917 14.24081,8.68916 21.20358,15.53329 3.65229,3.59005 4.24099,4.30791 4.24,5.17021 -9.6e-4,0.89146 -1.00353,1.97123 -9.1359,9.84 -7.12049,6.88971 -9.31533,8.83867 -9.95372,8.83867 -0.59047,0 -1.81373,-0.90561 -4.38427,-3.24577 -4.1457,-3.77416 -7.53978,-6.41322 -11.04002,-8.58414 -10.21504,-6.33557 -21.66425,-9.32298 -32.07434,-8.36907 -12.12695,1.11123 -21.08623,5.18951 -29.25954,13.31898 -6.8692,6.83235 -11.20289,14.69962 -13.32962,24.198242 -0.64926,2.89976 -0.74374,4.17546 -0.74374,10.04176 0,7.58238 0.44342,10.8074 2.24764,16.34709 2.13769,6.5636 5.40136,11.86467 10.3512,16.81312 4.00223,4.00111 7.56261,6.44539 13.96116,9.58467 7.40634,3.63372 12.94496,4.90626 21.28,4.88923 7.48085,-0.0153 12.87997,-1.22049 20.44119,-4.56297 6.21496,-2.74736 11.30056,-6.22261 18.05125,-12.33533 2.94208,-2.66403 3.94348,-3.3939 4.54949,-3.31587 0.54443,0.0701 3.41471,2.9231 9.58756,9.52982 7.61316,8.14826 8.81051,9.56464 8.81051,10.42222 0,0.86428 -0.52147,1.46476 -4.03792,4.64966 -12.50269,11.32387 -23.1175,17.4383 -35.80208,20.623 -7.3117,1.83574 -10.47015,2.17306 -21.12,2.25562 -5.28,0.0409 -10.032,0.0169 -10.56,-0.0535 z m 428,-74.22031 V 48.493958 l 27.12,0.11259 c 29.86246,0.12397 28.24896,0.0221 34.8,2.19644 13.09312,4.34563 24.49667,15.74167 28.62458,28.60569 1.85235,5.77252 2.09542,7.62772 2.09542,15.99234 0,6.149492 -0.1193,8.317712 -0.59866,10.880002 -2.42025,12.9373 -9.71993,22.95908 -22.1688,30.43581 -1.82467,1.0959 -3.47939,2.04647 -3.67715,2.11239 -0.20374,0.0679 5.48333,11.1449 13.12253,25.55937 8.17968,15.43437 13.48208,25.78029 13.48208,26.30597 v 0.86646 l -15.28,-0.005 -15.28,-0.005 -12.86109,-24.07521 -12.86105,-24.0752 -3.85895,-0.0898 -3.85891,-0.0899 v 24.16985 24.16985 h -14.4 -14.4 v -71.53353 z m 47.77498,-5.42298 c 8.41203,-2.19106 14.94502,-10.51563 14.94502,-19.043492 0,-6.1956 -3.21357,-11.99498 -8.71798,-15.73297 -4.13901,-2.81073 -7.59056,-3.46703 -18.23364,-3.46703 h -6.96838 v 19.36 19.360002 h 8.57277 c 6.55993,0 9.0023,-0.11188 10.40221,-0.47651 z m 248.86502,19.35651 V 76.361018 h -12.48 -12.48 v -13.92 -13.92 h 40.16 40.16 v 13.92 13.92 h -12.96 -12.96 v 57.600002 57.6 h -14.72 -14.72 z m -602.56,-14.56 V 47.561018 h 13.92 13.92 v 58.080002 58.08 h 19.84 19.84 v 13.76 13.76 h -33.76 -33.76 z m 117.82781,70.64 c 0.0955,-0.84834 48.41715,-126.708172 54.24201,-141.280002 l 0.47968,-1.2 h 14.34637 c 8.35418,0 14.42211,0.12257 14.52771,0.29346 0.0998,0.16141 0.26852,0.92905 0.37498,1.70588 0.17658,1.28834 -0.3607,2.84378 -6.11629,17.70654 -3.47043,8.96176 -10.70518,27.45412 -16.07718,41.094122 -5.372,13.64 -9.8376,25.052 -9.92352,25.36 -0.14743,0.52844 0.83747,0.56 17.48112,0.56 9.70051,0 17.63731,-0.11177 17.63731,-0.24837 0,-0.1366 -1.872,-4.92083 -4.16,-10.63163 -2.67114,-6.66708 -4.16,-10.80038 -4.16,-11.54869 0,-0.75797 2.39766,-7.30561 6.85811,-18.728362 6.78851,-17.38472 6.8672,-17.56295 7.75341,-17.56295 0.89446,0 0.91514,0.0513 23.06189,57.276962 12.19161,31.50233 22.16659,57.53033 22.16659,57.84 0,0.52945 -0.90346,0.56304 -15.14544,0.56304 h -15.14547 l -5.25984,-14.48 -5.25984,-14.48 h -28.28954 -28.2895 l -5.92208,14.48 -5.92205,14.48 h -14.69674 -14.69673 z m 330.81219,-70.64 V 47.561018 h 39.52 39.52 v 14.08 14.08 h -25.44 -25.44 v 15.04 15.040002 h 25.44 25.44 v 13.6 13.6 h -25.44 -25.44 v 15.2 15.2 h 25.44 25.44 v 13.92 13.92 h -39.52 -39.52 z"
       id="path14" />
  </g>
</svg>
